<mxfile host="app.diagrams.net" modified="2021-02-01T15:33:15.864Z" agent="5.0 (Windows NT 10.0; Win64; x64) AppleWebKit/537.36 (KHTML, like Gecko) Chrome/88.0.4324.104 Safari/537.36" etag="TaAyWWeL0suAmOp8E9Y8" version="14.2.7" type="github">
  <diagram id="mgxzi-yPcugMr2c35Z91" name="Page-1">
    <mxGraphModel dx="652" dy="364" grid="1" gridSize="10" guides="1" tooltips="1" connect="1" arrows="1" fold="1" page="1" pageScale="1" pageWidth="827" pageHeight="1169" math="0" shadow="0">
      <root>
        <mxCell id="0" />
        <mxCell id="1" parent="0" />
        <mxCell id="G4l-uw-PBjxxs0yxztcG-4" style="edgeStyle=orthogonalEdgeStyle;rounded=0;orthogonalLoop=1;jettySize=auto;html=1;entryX=0.5;entryY=0;entryDx=0;entryDy=0;" edge="1" parent="1" source="K7aWRvvbhgT_T4m95MLQ-1" target="K7aWRvvbhgT_T4m95MLQ-2">
          <mxGeometry relative="1" as="geometry" />
        </mxCell>
        <mxCell id="G4l-uw-PBjxxs0yxztcG-5" style="edgeStyle=orthogonalEdgeStyle;rounded=0;orthogonalLoop=1;jettySize=auto;html=1;entryX=0.5;entryY=0;entryDx=0;entryDy=0;" edge="1" parent="1" source="K7aWRvvbhgT_T4m95MLQ-1" target="K7aWRvvbhgT_T4m95MLQ-4">
          <mxGeometry relative="1" as="geometry" />
        </mxCell>
        <mxCell id="G4l-uw-PBjxxs0yxztcG-6" style="edgeStyle=orthogonalEdgeStyle;rounded=0;orthogonalLoop=1;jettySize=auto;html=1;entryX=0.5;entryY=0;entryDx=0;entryDy=0;" edge="1" parent="1" source="K7aWRvvbhgT_T4m95MLQ-1" target="K7aWRvvbhgT_T4m95MLQ-3">
          <mxGeometry relative="1" as="geometry" />
        </mxCell>
        <mxCell id="K7aWRvvbhgT_T4m95MLQ-1" value="TS" style="rounded=0;whiteSpace=wrap;html=1;" parent="1" vertex="1">
          <mxGeometry x="363" y="10" width="100" height="50" as="geometry" />
        </mxCell>
        <mxCell id="G4l-uw-PBjxxs0yxztcG-20" style="edgeStyle=orthogonalEdgeStyle;rounded=0;orthogonalLoop=1;jettySize=auto;html=1;entryX=0.5;entryY=0;entryDx=0;entryDy=0;" edge="1" parent="1" source="K7aWRvvbhgT_T4m95MLQ-2" target="G4l-uw-PBjxxs0yxztcG-27">
          <mxGeometry relative="1" as="geometry">
            <mxPoint x="270" y="160" as="targetPoint" />
            <Array as="points">
              <mxPoint x="315" y="160" />
              <mxPoint x="315" y="160" />
            </Array>
          </mxGeometry>
        </mxCell>
        <mxCell id="K7aWRvvbhgT_T4m95MLQ-2" value="CQM0" style="rounded=0;whiteSpace=wrap;html=1;" parent="1" vertex="1">
          <mxGeometry x="249" y="100" width="70" height="40" as="geometry" />
        </mxCell>
        <mxCell id="wm0fCTp2LXdAbT0zuXOt-7" style="edgeStyle=none;rounded=0;orthogonalLoop=1;jettySize=auto;html=1;exitX=0.5;exitY=1;exitDx=0;exitDy=0;" parent="1" source="K7aWRvvbhgT_T4m95MLQ-3" edge="1">
          <mxGeometry relative="1" as="geometry">
            <mxPoint x="545" y="350" as="targetPoint" />
          </mxGeometry>
        </mxCell>
        <mxCell id="K7aWRvvbhgT_T4m95MLQ-3" value="CQM2" style="rounded=0;whiteSpace=wrap;html=1;" parent="1" vertex="1">
          <mxGeometry x="509" y="100" width="70" height="40" as="geometry" />
        </mxCell>
        <mxCell id="wm0fCTp2LXdAbT0zuXOt-6" style="edgeStyle=none;rounded=0;orthogonalLoop=1;jettySize=auto;html=1;exitX=0.5;exitY=1;exitDx=0;exitDy=0;" parent="1" source="K7aWRvvbhgT_T4m95MLQ-4" edge="1">
          <mxGeometry relative="1" as="geometry">
            <mxPoint x="414" y="350" as="targetPoint" />
          </mxGeometry>
        </mxCell>
        <mxCell id="K7aWRvvbhgT_T4m95MLQ-4" value="CQM1" style="rounded=0;whiteSpace=wrap;html=1;" parent="1" vertex="1">
          <mxGeometry x="378" y="100" width="70" height="40" as="geometry" />
        </mxCell>
        <mxCell id="wm0fCTp2LXdAbT0zuXOt-1" style="edgeStyle=none;rounded=0;orthogonalLoop=1;jettySize=auto;html=1;" parent="1" edge="1">
          <mxGeometry relative="1" as="geometry">
            <mxPoint x="290" y="190" as="targetPoint" />
            <mxPoint x="180" y="190" as="sourcePoint" />
            <Array as="points">
              <mxPoint x="230" y="190" />
            </Array>
          </mxGeometry>
        </mxCell>
        <mxCell id="K7aWRvvbhgT_T4m95MLQ-5" value="Launch CDMA" style="text;html=1;strokeColor=none;fillColor=none;align=center;verticalAlign=middle;whiteSpace=wrap;rounded=0;" parent="1" vertex="1">
          <mxGeometry x="120" y="250" width="40" height="20" as="geometry" />
        </mxCell>
        <mxCell id="K7aWRvvbhgT_T4m95MLQ-6" value="Launch&lt;br&gt;SDMA" style="text;html=1;strokeColor=none;fillColor=none;align=center;verticalAlign=middle;whiteSpace=wrap;rounded=0;" parent="1" vertex="1">
          <mxGeometry x="120" y="335" width="40" height="20" as="geometry" />
        </mxCell>
        <mxCell id="K7aWRvvbhgT_T4m95MLQ-7" value="Launch&lt;br&gt;Sip" style="text;html=1;strokeColor=none;fillColor=none;align=center;verticalAlign=middle;whiteSpace=wrap;rounded=0;" parent="1" vertex="1">
          <mxGeometry x="120" y="430" width="40" height="20" as="geometry" />
        </mxCell>
        <mxCell id="wm0fCTp2LXdAbT0zuXOt-3" style="edgeStyle=none;rounded=0;orthogonalLoop=1;jettySize=auto;html=1;" parent="1" edge="1">
          <mxGeometry relative="1" as="geometry">
            <mxPoint x="620" y="350" as="targetPoint" />
            <mxPoint x="170" y="350" as="sourcePoint" />
          </mxGeometry>
        </mxCell>
        <mxCell id="wm0fCTp2LXdAbT0zuXOt-4" style="edgeStyle=none;rounded=0;orthogonalLoop=1;jettySize=auto;html=1;" parent="1" edge="1">
          <mxGeometry relative="1" as="geometry">
            <mxPoint x="630" y="440" as="targetPoint" />
            <mxPoint x="180" y="440" as="sourcePoint" />
          </mxGeometry>
        </mxCell>
        <mxCell id="wm0fCTp2LXdAbT0zuXOt-9" style="edgeStyle=none;rounded=0;orthogonalLoop=1;jettySize=auto;html=1;exitX=0.5;exitY=1;exitDx=0;exitDy=0;" parent="1" source="K7aWRvvbhgT_T4m95MLQ-2" edge="1">
          <mxGeometry relative="1" as="geometry">
            <mxPoint x="285" y="350" as="targetPoint" />
            <mxPoint x="285" y="260" as="sourcePoint" />
            <Array as="points">
              <mxPoint x="285" y="270" />
            </Array>
          </mxGeometry>
        </mxCell>
        <mxCell id="wm0fCTp2LXdAbT0zuXOt-10" style="edgeStyle=none;rounded=0;orthogonalLoop=1;jettySize=auto;html=1;" parent="1" edge="1">
          <mxGeometry relative="1" as="geometry">
            <mxPoint x="285" y="440" as="targetPoint" />
            <mxPoint x="285" y="320" as="sourcePoint" />
          </mxGeometry>
        </mxCell>
        <mxCell id="wm0fCTp2LXdAbT0zuXOt-14" style="edgeStyle=none;rounded=0;orthogonalLoop=1;jettySize=auto;html=1;" parent="1" edge="1">
          <mxGeometry relative="1" as="geometry">
            <mxPoint x="414" y="440" as="targetPoint" />
            <mxPoint x="414" y="350" as="sourcePoint" />
          </mxGeometry>
        </mxCell>
        <mxCell id="wm0fCTp2LXdAbT0zuXOt-17" style="edgeStyle=none;rounded=0;orthogonalLoop=1;jettySize=auto;html=1;" parent="1" edge="1">
          <mxGeometry relative="1" as="geometry">
            <mxPoint x="545" y="440" as="targetPoint" />
            <mxPoint x="545" y="350" as="sourcePoint" />
          </mxGeometry>
        </mxCell>
        <mxCell id="wm0fCTp2LXdAbT0zuXOt-20" value="SDMA deslice" style="text;html=1;strokeColor=none;fillColor=none;align=center;verticalAlign=middle;whiteSpace=wrap;rounded=0;" parent="1" vertex="1">
          <mxGeometry x="120" y="520" width="40" height="20" as="geometry" />
        </mxCell>
        <mxCell id="wm0fCTp2LXdAbT0zuXOt-21" value="CDMA&lt;br&gt;deslice" style="text;html=1;strokeColor=none;fillColor=none;align=center;verticalAlign=middle;whiteSpace=wrap;rounded=0;" parent="1" vertex="1">
          <mxGeometry x="120" y="590" width="40" height="20" as="geometry" />
        </mxCell>
        <mxCell id="wm0fCTp2LXdAbT0zuXOt-22" style="edgeStyle=none;rounded=0;orthogonalLoop=1;jettySize=auto;html=1;" parent="1" edge="1">
          <mxGeometry relative="1" as="geometry">
            <mxPoint x="630" y="539.1700000000001" as="targetPoint" />
            <mxPoint x="180" y="539.1700000000001" as="sourcePoint" />
          </mxGeometry>
        </mxCell>
        <mxCell id="wm0fCTp2LXdAbT0zuXOt-24" style="edgeStyle=none;rounded=0;orthogonalLoop=1;jettySize=auto;html=1;" parent="1" edge="1">
          <mxGeometry relative="1" as="geometry">
            <mxPoint x="630" y="600.0000000000002" as="targetPoint" />
            <mxPoint x="180" y="600.0000000000002" as="sourcePoint" />
          </mxGeometry>
        </mxCell>
        <mxCell id="wm0fCTp2LXdAbT0zuXOt-29" style="edgeStyle=none;rounded=0;orthogonalLoop=1;jettySize=auto;html=1;" parent="1" edge="1">
          <mxGeometry relative="1" as="geometry">
            <mxPoint x="414" y="540" as="targetPoint" />
            <mxPoint x="413.9999999999998" y="440" as="sourcePoint" />
          </mxGeometry>
        </mxCell>
        <mxCell id="wm0fCTp2LXdAbT0zuXOt-39" style="edgeStyle=none;rounded=0;orthogonalLoop=1;jettySize=auto;html=1;" parent="1" edge="1">
          <mxGeometry relative="1" as="geometry">
            <mxPoint x="284" y="540" as="targetPoint" />
            <mxPoint x="284" y="440" as="sourcePoint" />
          </mxGeometry>
        </mxCell>
        <mxCell id="wm0fCTp2LXdAbT0zuXOt-45" style="edgeStyle=none;rounded=0;orthogonalLoop=1;jettySize=auto;html=1;" parent="1" edge="1">
          <mxGeometry relative="1" as="geometry">
            <mxPoint x="545" y="540" as="targetPoint" />
            <mxPoint x="545" y="440" as="sourcePoint" />
          </mxGeometry>
        </mxCell>
        <mxCell id="G4l-uw-PBjxxs0yxztcG-8" value="Launch CDMA" style="text;html=1;strokeColor=none;fillColor=none;align=center;verticalAlign=middle;whiteSpace=wrap;rounded=0;" vertex="1" parent="1">
          <mxGeometry x="120" y="160" width="40" height="20" as="geometry" />
        </mxCell>
        <mxCell id="G4l-uw-PBjxxs0yxztcG-9" style="edgeStyle=none;rounded=0;orthogonalLoop=1;jettySize=auto;html=1;" edge="1" parent="1">
          <mxGeometry relative="1" as="geometry">
            <mxPoint x="279.9999999999999" y="259.5799999999999" as="targetPoint" />
            <mxPoint x="180" y="259.5799999999999" as="sourcePoint" />
          </mxGeometry>
        </mxCell>
        <mxCell id="G4l-uw-PBjxxs0yxztcG-41" style="edgeStyle=orthogonalEdgeStyle;rounded=1;orthogonalLoop=1;jettySize=auto;html=1;entryX=0.5;entryY=0;entryDx=0;entryDy=0;" edge="1" parent="1" target="G4l-uw-PBjxxs0yxztcG-37">
          <mxGeometry relative="1" as="geometry">
            <mxPoint x="230" y="260" as="sourcePoint" />
            <Array as="points">
              <mxPoint x="230" y="290" />
              <mxPoint x="445" y="290" />
            </Array>
          </mxGeometry>
        </mxCell>
        <mxCell id="G4l-uw-PBjxxs0yxztcG-27" value="wait 1" style="rounded=1;whiteSpace=wrap;html=1;fillColor=#d5e8d4;strokeColor=#82b366;" vertex="1" parent="1">
          <mxGeometry x="290" y="180" width="50" height="30" as="geometry" />
        </mxCell>
        <mxCell id="G4l-uw-PBjxxs0yxztcG-28" value="wait 2" style="rounded=1;whiteSpace=wrap;html=1;fillColor=#d5e8d4;strokeColor=#82b366;" vertex="1" parent="1">
          <mxGeometry x="290" y="245" width="50" height="30" as="geometry" />
        </mxCell>
        <mxCell id="G4l-uw-PBjxxs0yxztcG-31" value="wait 3" style="rounded=1;whiteSpace=wrap;html=1;fillColor=#d5e8d4;strokeColor=#82b366;" vertex="1" parent="1">
          <mxGeometry x="290" y="305" width="50" height="30" as="geometry" />
        </mxCell>
        <mxCell id="G4l-uw-PBjxxs0yxztcG-33" value="" style="endArrow=classic;html=1;entryX=0.5;entryY=0;entryDx=0;entryDy=0;rounded=1;edgeStyle=orthogonalEdgeStyle;" edge="1" parent="1" target="G4l-uw-PBjxxs0yxztcG-28">
          <mxGeometry width="50" height="50" relative="1" as="geometry">
            <mxPoint x="230" y="190" as="sourcePoint" />
            <mxPoint x="440" y="250" as="targetPoint" />
            <Array as="points">
              <mxPoint x="240" y="190" />
              <mxPoint x="240" y="220" />
              <mxPoint x="315" y="220" />
            </Array>
          </mxGeometry>
        </mxCell>
        <mxCell id="G4l-uw-PBjxxs0yxztcG-37" value="wait 3" style="rounded=1;whiteSpace=wrap;html=1;fillColor=#d5e8d4;strokeColor=#82b366;" vertex="1" parent="1">
          <mxGeometry x="420" y="305" width="50" height="30" as="geometry" />
        </mxCell>
        <mxCell id="G4l-uw-PBjxxs0yxztcG-38" value="wait 3" style="rounded=1;whiteSpace=wrap;html=1;fillColor=#d5e8d4;strokeColor=#82b366;" vertex="1" parent="1">
          <mxGeometry x="550" y="305" width="50" height="30" as="geometry" />
        </mxCell>
        <mxCell id="G4l-uw-PBjxxs0yxztcG-42" style="edgeStyle=orthogonalEdgeStyle;rounded=1;orthogonalLoop=1;jettySize=auto;html=1;entryX=0.5;entryY=0;entryDx=0;entryDy=0;" edge="1" parent="1" target="G4l-uw-PBjxxs0yxztcG-38">
          <mxGeometry relative="1" as="geometry">
            <mxPoint x="240" y="260" as="sourcePoint" />
            <mxPoint x="455" y="315" as="targetPoint" />
            <Array as="points">
              <mxPoint x="240" y="280" />
              <mxPoint x="575" y="280" />
            </Array>
          </mxGeometry>
        </mxCell>
        <mxCell id="G4l-uw-PBjxxs0yxztcG-43" style="edgeStyle=orthogonalEdgeStyle;rounded=1;orthogonalLoop=1;jettySize=auto;html=1;entryX=0.5;entryY=0;entryDx=0;entryDy=0;" edge="1" parent="1" target="G4l-uw-PBjxxs0yxztcG-31">
          <mxGeometry relative="1" as="geometry">
            <mxPoint x="250" y="260" as="sourcePoint" />
            <mxPoint x="585" y="315" as="targetPoint" />
            <Array as="points">
              <mxPoint x="250" y="300" />
              <mxPoint x="315" y="300" />
            </Array>
          </mxGeometry>
        </mxCell>
        <mxCell id="G4l-uw-PBjxxs0yxztcG-44" value="wait 3" style="rounded=1;whiteSpace=wrap;html=1;fillColor=#d5e8d4;strokeColor=#82b366;" vertex="1" parent="1">
          <mxGeometry x="290" y="400" width="50" height="30" as="geometry" />
        </mxCell>
        <mxCell id="G4l-uw-PBjxxs0yxztcG-45" value="4" style="text;html=1;strokeColor=none;fillColor=none;align=center;verticalAlign=middle;whiteSpace=wrap;rounded=0;" vertex="1" parent="1">
          <mxGeometry x="200" y="110" width="40" height="20" as="geometry" />
        </mxCell>
        <mxCell id="G4l-uw-PBjxxs0yxztcG-46" value="2" style="text;html=1;strokeColor=none;fillColor=none;align=center;verticalAlign=middle;whiteSpace=wrap;rounded=0;" vertex="1" parent="1">
          <mxGeometry x="338" y="110" width="40" height="20" as="geometry" />
        </mxCell>
        <mxCell id="G4l-uw-PBjxxs0yxztcG-47" value="2" style="text;html=1;strokeColor=none;fillColor=none;align=center;verticalAlign=middle;whiteSpace=wrap;rounded=0;" vertex="1" parent="1">
          <mxGeometry x="480" y="110" width="40" height="20" as="geometry" />
        </mxCell>
      </root>
    </mxGraphModel>
  </diagram>
</mxfile>
